{"title":"The.Glittering.Prizes.1976.Part.03.A.Past.Life.DVDRip.XviD-SPRiN","uid":5341571,"size":748145119,"categoryP":"video","categoryS":"movies","magnet":"?xt=urn:btih:bf0ec5866f5b5d43dcf0b2bfed3fcc992153e775&amp;dn=The.Glittering.Prizes.1976.Part.03.A.Past.Life.DVDRip.XviD-SPRiN&amp;tr=udp%3A%2F%2Ftracker.openbittorrent.com%3A80&amp;tr=udp%3A%2F%2Fopen.demonii.com%3A1337&amp;tr=udp%3A%2F%2Ftracker.coppersurfer.tk%3A6969&amp;tr=udp%3A%2F%2Fexodus.desync.com%3A6969","seeders":1,"leechers":1,"uploader":"TvTeam","files":57,"time":1265497277,"description":"Torrentday . com - Your Gateway To The Scene.\n\nWe are the most on-time tracker around the globe, You can download releases whenever they release out by group uploaders. no Wait Time.\n\nTorrentDay is a private tracker torrent website, which is totally free, safe and fast.\n\nHigher Speed Download is available at: TorrentDay\n\n.\n\nTorrentday - Your Key To The Scene.\n\n...................................NFO:....................................\n\n.SPRiNTER proudly presents...\n\n\n\nThe.Glittering.Prizes.1976.Part.03.A.Past.Life.DVDRip.XviD-SPRiNTER\nhttp://www.imdb.com/title/tt0073999/\nSubtitles: English\n\nDate: 2010.02\n\n\nDirector: Waris Hussein, Robert Knights\n\nProduct Description: The Glittering Prizes was a critical sensation when it premiered on PBS in the late 1970s. Frederic Raphaels tale portrays the hopes and frustrations of an entire generation through the story of a group of friends who meet the prestigious Cambridge University in the 1950s. Tom Conti and Barbara Kellerman lead an outstanding ensemble cast in a series of six 80-minute episodes that follow the evolution of these privileged, idealistic college students through the turbulent 1960s and into the 1970s where their lives diverge and they struggle with emotional disillusionment and varying levels of worldly success.\n\nCast\n \n Tom Conti ...  Adam Morris (4 episodes, 1976) \n Barbara Kellerman ...  Barbara Morris / ... (4 episodes, 1976) \n Mark Wing-Davey ...  Mike Clode (4 episodes, 1976) \n Jeremy Child ...  John Cadman (3 episodes, 1976) \n John Gregg ...  Alan Parks (3 episodes, 1976) \n Roger Hammond ...  Ronald Braithwaite (3 episodes, 1976) \n Nigel Havers ...  Denis Porson (3 episodes, 1976) \n Clive Merrison ...  Bill Bourne (3 episodes, 1976) \n Emily Richard ...  Anna Cunningham (3 episodes, 1976) \n Leonard Sachs ...  Lionel Morris (3 episodes, 1976) \n Malcolm Stoddard ...  Dan Bradley (3 episodes, 1976) \n Simon Cadell ...  Ken Hobbs (2 episodes, 1976) \n Anna Carteret ...  Barbara Parks / ... (2 episodes, 1976) \n Angela Down ...  Joyce Bradley / ... (2 episodes, 1976) \n Steve Plytas ...  Bruno Laszlo (2 episodes, 1976) \n Suzanne Stone ...  Joann Bourne / ... (2 episodes, 1976)\n\n\nRelease notes:\n\nEnjoy!\n\nFormat                           : AVI\nFormat/Info                      : Audio Video Interleave\nFile size                        : 701 MiB\nDuration                         : 1h 13mn\nOverall bit rate                 : 1 342 Kbps\nWriting application              : VirtualDubMod 1.5.10.2 (build 2540/release)\nWriting library                  : VirtualDubMod build 2540/release\n\nVideo\nID                               : 0\nFormat                           : MPEG-4 Visual\nFormat profile                   : AdvancedSimple@L5\nFormat settings, BVOP            : Yes\nFormat settings, QPel            : No\nFormat settings, GMC             : No warppoints\nFormat settings, Matrix          : Default (H.263)\nCodec ID                         : XVID\nCodec ID/Hint                    : XviD\nDuration                         : 1h 13mn\nBit rate                         : 1 250 Kbps\nWidth                            : 512 pixels\nHeight                           : 384 pixels\nDisplay aspect ratio             : 4:3\nFrame rate                       : 29.970 fps\nResolution                       : 24 bits\nColorimetry                      : 4:2:0\nScan type                        : Progressive\nBits/(Pixel*Frame)               : 0.212\nStream size                      : 653 MiB (93%)\nWriting library                  : XviD 1.2.1 (UTC 2008-12-04)\n\nAudio\nID                               : 1\nFormat                           : MPEG Audio\nFormat version                   : Version 1\nFormat profile                   : Layer 3\nCodec ID                         : 55\nCodec ID/Hint                    : MP3\nDuration                         : 1h 13mn\nBit rate mode                    : Variable\nBit rate                         : 77.4 Kbps\nMinimum bit rate                 : 32.0 Kbps\nChannel(s)                       : 1 channel\nSampling rate                    : 48.0 KHz\nResolution                       : 16 bits\nStream size                      : 40.4 MiB (6%)\nAlignment                        : Aligned on interleaves\nInterleave, duration             : 24 ms (0.72 video frame)\nInterleave, preload duration     : 238 ms\nWriting library                  : LAME3.95 \nEncoding settings                : -m m -V 4 -q 3 -lowpass 18 --vbr-old -b 32","torrent":{"xt":"urn:btih:bf0ec5866f5b5d43dcf0b2bfed3fcc992153e775","amp;dn":"The.Glittering.Prizes.1976.Part.03.A.Past.Life.DVDRip.XviD-SPRiN","amp;tr":["udp%3A%2F%2Ftracker.openbittorrent.com%3A80","udp%3A%2F%2Fopen.demonii.com%3A1337","udp%3A%2F%2Ftracker.coppersurfer.tk%3A6969","udp%3A%2F%2Fexodus.desync.com%3A6969"],"infoHash":"bf0ec5866f5b5d43dcf0b2bfed3fcc992153e775","infoHashBuffer":{"type":"Buffer","data":[191,14,197,134,111,91,93,67,220,240,178,191,237,63,204,153,33,83,231,117]},"announce":[],"urlList":[]}}